Coordinates
version=1
nRows=14
nColumns=36
inDegrees=yes

Units are S.I. units (second, meters, Newtons, ...)
If the header above contains a line with 'inDegrees', this indicates whether rotational values are in degrees (yes) or radians (no).

endheader
time	pelvis_tilt	pelvis_list	pelvis_rotation	pelvis_tx	pelvis_ty	pelvis_tz	hip_flexion_r	hip_adduction_r	hip_rotation_r	knee_angle_r	knee_angle_r_beta	ankle_angle_r	subtalar_angle_r	mtp_angle_r	hip_flexion_l	hip_adduction_l	hip_rotation_l	knee_angle_l	knee_angle_l_beta	ankle_angle_l	subtalar_angle_l	mtp_angle_l	lumbar_extension	lumbar_bending	lumbar_rotation	arm_flex_r	arm_add_r	arm_rot_r	elbow_flex_r	pro_sup_r	arm_flex_l	arm_add_l	arm_rot_l	elbow_flex_l	pro_sup_l
      0.54000000	     -6.03317452	      5.26640304	      3.43999428	     -0.70232960	      1.37932866	     -0.56338454	      3.81229186	     -3.37087604	     -3.62117112	     18.87835478	      0.32948945	    -29.74342369	     -4.95955415	     -5.56696684	     33.90634615	      1.85712784	     -6.17182389	     44.52189090	      0.77705359	    -22.33764498	    -18.49997685	     -5.56696684	    -16.27663225	     -8.24744569	     -6.03514373	     15.03276727	    -14.68077209	    -12.06207573	    120.61349349	    103.44241596	    -11.15711763	    -18.98728956	     -3.95381216	    107.56120781	    110.12091523
      0.55000000	     -6.05507546	      5.00884941	      3.16153681	     -0.69283132	      1.38271869	     -0.56377278	      5.19014539	     -3.47958438	     -3.25185168	     19.08680732	      0.33312763	    -29.69506930	     -4.79186319	     -5.58953494	     33.30591711	      1.44680027	     -6.50088880	     41.90684976	      0.73141251	    -22.42545173	    -17.70032732	     -5.58953494	    -16.49863780	     -7.99206768	     -6.06013714	     13.40137659	    -14.61345146	    -13.11795467	    120.61092182	    103.46974215	    -12.02833538	    -18.39310451	     -4.62617153	    107.73329071	    110.13133496
      0.56000000	     -6.09331032	      4.76233222	      2.87902808	     -0.68335026	      1.38505793	     -0.56431239	      6.57417617	     -3.64960650	     -3.13345718	     19.06974549	      0.33282985	    -28.98431814	     -4.16342911	     -5.65342199	     32.68692605	      1.04880458	     -6.89748503	     39.29456845	      0.68581960	    -22.53476309	    -16.73761709	     -5.65342199	    -16.79089248	     -7.66913168	     -5.85938577	     11.56588702	    -14.64880559	    -14.47433960	    120.88261109	    103.54829828	    -12.62583485	    -17.98140640	     -4.92787150	    107.95246858	    110.20141725
      0.57000000	     -6.18723738	      4.49472651	      2.61929976	     -0.67382712	      1.38623561	     -0.56484740	      7.98723508	     -3.77034016	     -3.07154331	     18.80946045	      0.32828702	    -28.22081420	     -3.81859687	     -5.69729377	     32.11488601	      0.65354606	     -7.29986406	     36.71072411	      0.64072301	    -22.94278552	    -15.92631997	     -5.69729377	    -17.01431383	     -7.31083068	     -5.77980439	      9.76033062	    -14.76302039	    -15.65362997	    120.98568816	    103.53086973	    -13.41916001	    -17.61501321	     -5.51931179	    108.39869510	    110.23573093
      0.58000000	     -6.38374027	      4.19905493	      2.37994583	     -0.66415978	      1.38617296	     -0.56528879	      9.42905067	     -3.82473402	     -3.05302765	     18.23237263	      0.31821493	    -27.59221575	     -3.70766050	     -5.71587369	     31.63336256	      0.26897566	     -7.54134940	     34.14418864	      0.59592851	    -23.38281001	    -15.18537253	     -5.71587369	    -17.05571445	     -6.93180322	     -5.71226140	      7.93715725	    -15.03614579	    -16.55078465	    121.04173328	    103.49194009	    -14.33500897	    -17.20837734	     -6.29533788	    108.98251703	    110.26473166
      0.59000000	     -6.55634887	      3.96785071	      2.12570276	     -0.65433272	      1.38505691	     -0.56565308	     10.79908657	     -3.93363616	     -3.08994357	     17.52287956	      0.30583194	    -26.89638576	     -3.56968646	     -5.73553370	     31.09545801	     -0.10492626	     -7.99241166	     31.59199667	      0.55138436	    -24.18199305	    -14.35227282	     -5.73553370	    -17.12795414	     -6.63288872	     -5.62836786	      6.01230036	    -15.39033931	    -17.47613460	    121.18363579	    103.44097149	    -15.26346636	    -16.90447142	     -7.08835366	    109.74566662	    110.31883734
      0.60000000	     -6.69138199	      3.75989777	      1.86826172	     -0.64440093	      1.38295893	     -0.56602603	     12.07866538	     -4.06759944	     -3.23506422	     16.66480236	      0.29085567	    -26.19942613	     -3.33810857	     -5.78422666	     30.49423140	     -0.45231094	     -8.57697589	     29.02805735	      0.50663518	    -25.51019334	    -13.74533790	     -5.78422666	    -17.21970487	     -6.35726154	     -5.41347341	      3.94050689	    -15.79996475	    -18.59416934	    121.46548103	    103.32527688	    -16.05786203	    -16.74395982	     -7.70593512	    110.56937962	    110.39522982
      0.61000000	     -6.92730910	      3.51996316	      1.66432526	     -0.63442303	      1.37962399	     -0.56646392	     13.41360299	     -4.14690909	     -3.32442926	     15.68616669	      0.27377526	    -25.99584372	     -3.48695653	     -5.81323603	     30.03049600	     -0.77556156	     -9.06282089	     26.56780429	      0.46369566	    -26.70969733	    -12.74918929	     -5.81323603	    -17.19141977	     -6.05339210	     -5.31304117	      1.86776273	    -16.28074490	    -19.57791689	    121.78059312	    103.24395404	    -17.02190248	    -16.54671359	     -8.64844746	    111.63846176	    110.43178602
      0.62000000	     -7.19122582	      3.31240764	      1.42132556	     -0.62432699	      1.37512963	     -0.56685971	     14.74753456	     -4.22821069	     -3.42680974	     14.65416076	      0.25576335	    -25.94189823	     -3.68871972	     -5.83129137	     29.60690532	     -1.05197676	     -9.43349738	     24.25727875	      0.42336938	    -27.67498724	    -11.61910307	     -5.83129137	    -17.09868749	     -5.79489489	     -5.21619486	     -0.35986756	    -16.97044457	    -20.33893134	    122.22462360	    103.16833866	    -18.18432983	    -16.46869169	     -9.72007610	    112.94716740	    110.42864194
      0.63000000	     -7.41978596	      3.11654904	      1.19437479	     -0.61413279	      1.36961575	     -0.56722550	     16.00292925	     -4.29820154	     -3.61426370	     13.62601284	      0.23781879	    -25.94661003	     -3.97008642	     -5.84555798	     29.15740255	     -1.32612696	     -9.83309907	     22.04121302	      0.38469174	    -28.40061211	    -10.61755437	     -5.84555798	    -17.01398964	     -5.52831539	     -5.14465122	     -2.60405550	    -17.67122757	    -20.97979423	    122.74547909	    103.10762456	    -19.45183990	    -16.49968711	    -10.74087476	    114.42065567	    110.45731033
      0.64000000	     -7.47985290	      3.03860769	      0.95003160	     -0.60386308	      1.36338492	     -0.56732821	     17.04930891	     -4.43243304	     -3.59668819	     12.66166561	      0.22098775	    -26.25711704	     -4.47669197	     -5.87544825	     28.47504015	     -1.49443905	    -10.28006001	     19.78490259	      0.34531169	    -29.32773265	     -9.38321728	     -5.87544825	    -17.17713985	     -5.45051442	     -5.10667509	     -4.81421732	    -18.24216509	    -21.90949236	    123.48919858	    103.00143520	    -20.76842403	    -16.77268506	    -11.97504577	    116.06481636	    110.53560081
      0.65000000	     -7.62526596	      2.89234450	      0.72519838	     -0.59338832	      1.35591739	     -0.56738343	     18.08704018	     -4.46051864	     -3.48157172	     11.63875062	      0.20313452	    -26.57914728	     -4.96450813	     -5.93696832	     27.99028848	     -1.72289972	    -10.68329315	     17.87135824	      0.31191404	    -29.55293732	     -8.45388060	     -5.93696832	    -17.13794169	     -5.31924697	     -4.98745800	     -7.24947972	    -19.01699110	    -22.65408423	    124.29961897	    102.83519349	    -22.16162564	    -17.09638356	    -13.12740384	    117.73043691	    110.68334680
      0.66000000	     -7.82885887	      2.77976742	      0.57603889	     -0.58288169	      1.34724001	     -0.56759761	     19.14552730	     -4.54987793	     -3.40556891	     10.73258296	      0.18731891	    -26.64774926	     -4.86514488	     -5.95341032	     27.67045860	     -1.86652830	    -10.95209045	     16.21337377	      0.28297676	    -29.52671597	     -7.86796414	     -5.95341032	    -16.99590405	     -5.21238767	     -4.97639337	     -9.77209248	    -19.90754978	    -23.29881407	    125.15673547	    102.80660868	    -23.67532041	    -17.42302459	    -14.49265980	    119.54922134	    110.74078934
      0.67000000	     -7.90275735	      2.74724859	      0.39957241	     -0.57209800	      1.33770178	     -0.56776511	     19.99142662	     -4.69066351	     -3.27350335	      9.88851723	      0.17258718	    -26.82071668	     -4.63862511	     -5.96802067	     27.24071870	     -1.97696261	    -11.40690104	     14.71576199	      0.25683850	    -29.43909856	     -7.26374070	     -5.96802067	    -16.94853017	     -5.19860206	     -4.97335169	    -12.39815906	    -20.77897791	    -23.97617306	    126.09580383	    102.78399602	    -25.28270929	    -17.83409183	    -15.93250320	    121.43925582	    110.80636425
